# xmcd
#
# Track frame offsets: 
#        150
#        16125
#        30162
#        49300
#        62667
#        80625
#        93907
#        104395
#        121297
#        136397
#        151720
#        167135
#
# Disc length: 2429 seconds
#
# Revision: 2
# Processed by: cddbd v1.4PL0 Copyright (c) Steve Scherf et al.
# Submitted via: ExactAudioCopy v0.95a3
#
DISCID=8c097b0c
DTITLE=Various Artist - Outback Adventures CD1Of2
DYEAR=1997
DGENRE=Country
TTITLE0=Lee Kernaghan - This Is The Outback
TTITLE1=Gina Jeffreys - Girl Talk
TTITLE2=Lyn Bowtell and Karen O'Shea - I Can Fly
TTITLE3=Tania Kernaghan - Boys In Boots
TTITLE4=Troy and Scott Dann - Bulldoggin'
TTITLE5=Lee Kernaghan and Troy Cassar-Daley - Workin' For The Man
TTITLE6=Pixie - Nutcracker
TTITLE7=Tania Kernaghan - Hobble Chains
TTITLE8=Lee Kernaghan - Scrubbashin'
TTITLE9=Gina Jeffreys - Hard Working Man
TTITLE10=Johnno's Blues Band - Don't Knock The Croc
TTITLE11=Lee Kernaghan - The Outback Club
EXTD=YEAR: 1997 ID3G:   2
EXTT0=
EXTT1=
EXTT2=
EXTT3=
EXTT4=
EXTT5=
EXTT6=
EXTT7=
EXTT8=
EXTT9=
EXTT10=
EXTT11=
PLAYORDER=
